<?xml version="1.0" standalone="no"?>
<!DOCTYPE svg PUBLIC "-//W3C//DTD SVG 20010904//EN"
 "http://www.w3.org/TR/2001/REC-SVG-20010904/DTD/svg10.dtd">
<svg version="1.0" xmlns="http://www.w3.org/2000/svg"
 width="300.000000pt" height="300.000000pt" viewBox="0 0 300.000000 300.000000"
 preserveAspectRatio="xMidYMid meet">
<metadata>
Created by potrace 1.10, written by Peter Selinger 2001-2011
</metadata>
<g transform="translate(0.000000,300.000000) scale(0.100000,-0.100000)"
fill="#ff5460" stroke="none">
<path d="M1327 2633 c18 -2 50 -2 70 0 21 2 7 4 -32 4 -38 0 -55 -2 -38 -4z"/>
<path d="M1194 2530 c-22 -4 -69 -18 -104 -29 -57 -19 -87 -21 -305 -21 -220
0 -243 -2 -258 -18 -15 -17 -11 -67 65 -708 45 -379 86 -691 91 -693 31 -12
47 -44 46 -89 -1 -52 16 -106 31 -97 5 3 7 11 5 18 -2 7 -6 37 -9 67 -13 157
-161 1361 -164 1337 -2 -15 10 -144 27 -285 17 -141 46 -396 66 -567 19 -170
37 -327 40 -347 3 -21 2 -38 -3 -38 -6 0 -45 282 -68 500 -3 25 -18 158 -35
295 -17 138 -33 270 -35 295 -3 25 -9 79 -15 120 -6 41 -13 101 -16 133 l-5
57 43 -4 c24 -3 108 -6 187 -7 78 -1 142 -4 142 -6 0 -2 -12 -15 -27 -28 -26
-22 -37 -24 -146 -24 -127 -1 -157 -9 -157 -44 l0 -21 16 22 c14 21 22 22 135
22 l119 0 57 45 c37 28 73 47 98 51 22 3 48 10 57 15 29 16 34 9 8 -11 -22
-17 -15 -16 50 6 100 35 222 31 320 -10 91 -38 98 -40 75 -21 -11 9 -19 21
-17 27 2 6 -4 8 -12 5 -9 -4 -15 -1 -13 5 6 30 -206 66 -289 48z m56 -20 c-47
-5 -96 -11 -110 -15 -17 -5 -22 -5 -15 3 14 14 48 19 135 19 l75 0 -85 -7z"/>
<path d="M1555 2452 c17 -10 47 -35 68 -54 l37 -36 -4 34 c-5 52 -31 74 -85
74 l-46 0 30 -18z"/>
<path d="M2190 2371 c78 -68 119 -101 124 -101 9 0 -64 63 -109 94 -22 16 -29
19 -15 7z"/>
<path d="M1820 2341 c-38 -19 -80 -74 -79 -100 0 -12 2 -13 6 -2 7 18 68 72
100 89 39 21 104 12 130 -19 42 -49 45 -70 28 -189 -1 -8 -9 -31 -17 -51 -28
-64 -31 -82 -17 -77 20 7 69 155 69 211 0 99 -52 157 -140 157 -25 0 -61 -8
-80 -19z"/>
<path d="M1656 2334 c-3 -9 6 -33 23 -57 53 -78 75 -152 75 -257 1 -68 -4
-110 -18 -148 -10 -29 -16 -55 -14 -57 2 -3 14 23 25 57 30 87 28 208 -5 297
-13 36 -25 77 -27 91 -1 14 -7 24 -13 23 -5 -1 -9 5 -8 15 0 9 -4 16 -11 15
-7 -2 -10 3 -7 11 3 8 1 17 -4 20 -6 3 -13 -1 -16 -10z"/>
<path d="M2357 2195 c-39 -13 -82 -43 -157 -110 -66 -58 -109 -83 -168 -96
-66 -14 -67 -24 -2 -16 48 6 137 47 152 71 4 6 8 9 8 6 0 -3 24 17 54 46 85
79 145 100 213 72 15 -6 31 -11 36 -10 4 1 7 -2 7 -7 0 -6 11 -22 25 -37 14
-15 26 -38 27 -50 0 -13 1 -30 2 -36 1 -7 6 -16 11 -20 6 -5 4 -12 -5 -18 -8
-5 -12 -10 -8 -10 7 0 -11 -75 -36 -152 -20 -64 -11 -61 18 5 55 124 57 237 4
301 -52 63 -114 84 -181 61z"/>
<path d="M854 2065 c3 -97 23 -186 48 -210 8 -7 9 -4 3 10 -32 83 -39 112 -46
200 l-7 100 2 -100z"/>
<path d="M1507 1962 c2 -11 0 -23 -6 -26 -18 -12 -12 -36 9 -36 15 0 20 7 20
29 0 16 -6 34 -14 40 -12 10 -13 9 -9 -7z"/>
<path d="M1536 1884 c-26 -67 45 -179 127 -199 17 -5 27 -3 27 4 0 6 -5 11
-10 11 -12 0 -29 12 -75 55 -24 23 -36 45 -45 88 -6 31 -13 57 -15 57 -1 0 -6
-7 -9 -16z"/>
<path d="M1461 1871 c-21 -38 -13 -178 11 -208 5 -7 7 -16 4 -22 -3 -5 1 -12
10 -15 8 -3 13 -10 10 -15 -4 -5 0 -12 6 -14 10 -4 9 -8 -2 -17 -13 -9 -12
-10 5 -8 11 1 35 -12 55 -31 19 -18 54 -44 78 -58 80 -47 67 -52 -173 -59
-154 -4 -200 -2 -213 8 -15 12 -16 11 -3 -4 13 -17 7 -18 -95 -19 -60 -1 -122
-3 -139 -4 -16 -2 -59 -3 -94 -4 -35 0 -62 -4 -59 -7 3 -3 180 0 393 7 361 12
388 12 400 -4 17 -24 21 -22 39 23 22 56 20 67 -13 73 -37 8 -108 62 -148 115
-56 74 -76 190 -47 267 9 22 -13 18 -25 -4z"/>
<path d="M2581 1890 c0 -3 13 -41 29 -85 32 -89 41 -90 11 -2 -18 51 -40 100
-40 87z"/>
<path d="M1861 1765 c-19 -28 -21 -38 -12 -49 10 -12 8 -17 -10 -26 -15 -8
-18 -14 -10 -19 7 -5 19 -34 27 -67 22 -84 60 -150 96 -165 24 -10 46 -10 106
-1 41 7 77 10 80 8 2 -3 7 -25 9 -50 7 -56 -23 -157 -48 -163 -16 -4 -14 -9
11 -30 16 -13 35 -42 41 -64 11 -36 52 -89 69 -89 8 0 30 46 30 64 0 33 109
73 231 85 85 9 115 23 152 72 44 61 26 162 -37 200 -42 25 -46 15 -9 -24 43
-45 54 -84 38 -131 -13 -36 -51 -87 -64 -84 -19 5 -172 -15 -177 -23 -3 -5 -9
-7 -14 -4 -4 3 -21 -2 -36 -10 -16 -8 -37 -15 -46 -15 -10 0 -18 -4 -18 -9 0
-5 -9 -11 -19 -14 -11 -2 -21 -15 -23 -28 -4 -30 -28 -37 -35 -10 -3 12 -10
21 -16 21 -6 0 -8 3 -4 6 3 4 -2 23 -12 43 -19 36 -18 107 1 95 5 -3 6 6 2 23
-7 25 -6 27 9 14 16 -12 16 -11 3 20 -8 19 -16 51 -19 72 l-5 37 68 0 c38 0
103 -7 145 -15 84 -16 122 -8 157 31 42 48 64 158 43 224 -22 72 -111 110
-212 91 -70 -14 -111 -32 -167 -75 -76 -58 -142 -45 -216 43 -52 61 -75 65
-109 16z m192 -110 c61 -18 98 -9 167 40 87 62 223 83 270 40 68 -61 66 -181
-5 -255 -23 -24 -35 -29 -71 -27 -23 1 -40 5 -38 8 2 4 -6 7 -19 6 -12 0 -74
3 -137 6 -69 4 -140 2 -178 -4 -62 -11 -64 -11 -92 16 -17 17 -37 54 -51 98
-25 77 -28 129 -9 152 7 8 9 15 4 15 -5 0 -2 5 6 10 12 8 25 -1 58 -40 34 -38
55 -53 95 -65z"/>
<path d="M1714 1752 c-15 -23 -6 -82 12 -82 10 0 14 12 14 38 0 48 -12 67 -26
44z"/>
<path d="M2673 1475 c0 -33 2 -45 4 -27 2 18 2 45 0 60 -2 15 -4 0 -4 -33z"/>
<path d="M2027 1390 c3 -19 10 -39 14 -44 14 -15 11 -76 -3 -76 -27 0 -58 52
-58 97 0 23 -4 43 -10 43 -6 0 -10 -26 -10 -59 0 -68 21 -101 76 -119 31 -10
32 -10 38 30 8 47 -7 107 -34 140 l-20 23 7 -35z"/>
<path d="M821 1344 c-1 -11 5 -29 13 -39 16 -22 67 -23 348 -10 245 11 186 18
-89 10 l-252 -8 -9 34 c-7 22 -11 27 -11 13z"/>
<path d="M1483 1323 c-73 -2 -133 -7 -133 -11 1 -4 9 -17 20 -30 19 -23 22
-23 138 -16 l119 7 10 28 c10 25 9 29 -5 27 -10 -1 -77 -4 -149 -5z m102 -23
c3 -6 -4 -10 -18 -10 -13 0 -60 -3 -103 -6 -56 -5 -76 -3 -69 4 6 6 46 13 90
15 44 1 83 4 87 5 4 1 10 -2 13 -8z"/>
<path d="M1218 1265 c-2 -2 -79 -5 -171 -8 -163 -5 -197 -12 -197 -40 0 -6 6
-4 13 5 10 14 52 18 257 28 134 6 247 13 249 16 5 5 -146 4 -151 -1z"/>
<path d="M1565 1182 c-27 -1 -64 -4 -82 -7 -30 -5 -32 -7 -21 -31 11 -24 15
-25 90 -22 78 3 82 5 70 43 -6 17 -15 20 -57 17z m25 -32 c0 -5 -22 -10 -50
-10 -27 0 -50 5 -50 10 0 6 23 10 50 10 28 0 50 -4 50 -10z"/>
<path d="M1082 1157 c-112 -5 -201 -11 -200 -13 10 -10 187 -4 462 16 101 7
101 7 21 7 -44 0 -171 -5 -283 -10z"/>
<path d="M1367 1124 c-1 -1 -81 -5 -177 -9 -96 -4 -177 -9 -180 -12 -7 -8 358
8 405 17 l40 8 -43 -1 c-23 0 -44 -2 -45 -3z"/>
<path d="M830 1100 c-15 -15 -20 -33 -20 -79 0 -33 -3 -68 -6 -78 -5 -15 -4
-15 5 -3 6 8 11 40 11 70 0 75 18 100 73 100 53 -1 74 -17 85 -66 10 -45 1
-64 -67 -140 -59 -65 -76 -107 -60 -145 6 -16 17 -29 25 -29 16 0 54 39 54 55
0 23 49 65 75 65 33 0 65 -33 65 -68 0 -43 -25 -69 -72 -77 -58 -10 -108 -31
-138 -59 -14 -13 -44 -26 -70 -30 l-45 -7 27 28 c32 34 42 70 29 105 -7 18
-16 25 -28 23 -82 -16 -80 -17 -80 23 0 45 -16 78 -42 87 -38 12 -53 53 -42
117 0 3 13 20 27 37 24 28 24 31 6 31 -45 0 -73 -81 -58 -165 7 -34 9 -36 36
-30 22 5 31 1 44 -17 17 -23 21 -69 9 -82 -5 -4 -8 -19 -8 -33 0 -25 -11 -36
-47 -47 -25 -8 -11 -36 18 -36 17 0 29 10 44 39 22 45 30 51 75 61 30 7 34 5
38 -18 7 -34 -7 -68 -32 -82 -12 -6 -23 -25 -27 -45 -3 -19 -10 -38 -14 -40
-5 -3 -5 9 0 27 6 17 7 34 5 37 -9 8 -34 -33 -35 -58 0 -20 3 -22 28 -16 15 3
40 18 55 33 23 22 31 24 46 15 16 -10 22 -8 35 11 19 29 110 76 148 76 70 0
109 107 56 153 -23 19 -69 22 -99 7 -10 -6 -30 -33 -44 -60 -28 -56 -41 -62
-55 -24 -12 30 -3 49 49 113 97 119 109 158 65 210 -22 27 -32 31 -75 31 -36
0 -54 -5 -69 -20z"/>
<path d="M1664 919 c4 -101 12 -231 18 -289 17 -159 18 -155 -17 -156 -16 -1
-192 -18 -390 -38 -198 -20 -374 -36 -392 -36 -18 0 -36 -6 -40 -14 -9 -17
-165 -25 -223 -12 -60 14 -115 89 -127 171 -9 68 -51 88 -72 33 -11 -30 9 -68
61 -116 60 -55 72 -67 83 -85 13 -21 92 -36 165 -31 30 3 80 6 110 8 30 2 237
22 458 45 222 23 406 41 409 41 6 0 -3 -81 -12 -103 -10 -24 36 -23 59 2 16
17 16 20 0 48 -26 45 -14 63 44 63 50 0 79 14 83 40 3 14 -9 134 -17 175 -2
11 -6 43 -9 70 -3 28 -7 64 -9 80 -12 92 -18 133 -22 158 -3 15 -1 27 4 27 5
0 33 -68 62 -151 l53 -151 -25 -21 c-14 -12 -28 -32 -31 -44 -8 -37 11 -26 34
19 l22 43 14 -50 c7 -28 24 -81 36 -120 12 -38 22 -90 22 -115 0 -46 15 -60
50 -46 12 4 12 11 -2 43 -9 21 -17 71 -19 113 -2 76 -7 127 -18 190 -4 19 -8
51 -10 70 -3 19 -10 59 -16 88 -7 29 -10 62 -7 73 6 24 -9 31 -138 64 -98 24
-144 44 -177 77 l-21 21 7 -184z m108 70 c29 -11 29 -16 3 -74 -13 -30 -18
-75 -21 -186 -2 -81 -8 -158 -13 -172 -10 -25 -9 -52 1 -62 16 -17 38 134 39
275 1 63 5 129 9 145 7 30 7 30 13 5 3 -14 15 -107 27 -207 24 -208 22 -217
-40 -228 -22 -4 -40 -11 -40 -16 0 -5 -11 -9 -25 -9 -27 0 -32 9 -14 27 7 7 7
34 0 89 -5 44 -9 86 -9 94 0 8 -3 86 -7 172 -3 87 -4 162 0 167 3 7 14 7 28 1
12 -6 34 -15 49 -21z m182 -55 c9 -8 17 -27 18 -42 0 -15 3 -38 5 -52 2 -14 6
-59 9 -100 4 -41 11 -81 17 -88 5 -7 7 -15 4 -18 -9 -10 -55 78 -72 141 -10
33 -21 65 -24 70 -7 10 -31 86 -31 99 0 13 59 5 74 -10z"/>
<path d="M2080 1047 c15 -7 28 -25 31 -42 5 -25 7 -26 8 -7 2 35 -17 62 -42
62 -21 0 -21 -1 3 -13z"/>
<path d="M1553 1033 c-21 -3 -30 -9 -27 -17 5 -14 27 -10 89 15 18 7 17 8 -5
7 -14 -1 -39 -3 -57 -5z"/>
<path d="M1228 1016 c-102 -6 -190 -15 -194 -19 -5 -4 19 -5 51 -2 33 2 141
10 240 16 99 6 182 13 184 15 6 5 -55 3 -281 -10z"/>
<path d="M2220 970 c0 -16 -77 -50 -112 -50 -18 1 -44 7 -58 15 -41 23 -47 16
-13 -14 l33 -27 -25 -34 c-14 -19 -25 -35 -25 -36 0 -7 113 10 153 22 59 20
82 50 73 99 -6 31 -26 51 -26 25z m-16 -70 c-24 -27 -59 -40 -116 -45 -9 -1
-24 -8 -34 -16 -16 -13 -16 -12 -7 6 15 27 63 71 63 58 0 -13 68 2 85 18 5 5
15 9 22 9 8 0 2 -12 -13 -30z"/>
<path d="M486 819 c-21 -16 -26 -29 -26 -62 1 -23 7 -53 15 -67 8 -14 15 -41
15 -60 1 -28 3 -31 9 -15 4 11 4 34 0 50 -10 36 1 83 30 123 15 22 17 32 9 40
-16 16 -21 15 -52 -9z"/>
<path d="M2355 678 l-80 -83 83 80 c76 74 87 85 79 85 -1 0 -38 -37 -82 -82z"/>
<path d="M992 630 c-19 -4 -51 -25 -72 -45 -21 -21 -44 -35 -50 -33 -7 2 -27
-11 -44 -28 -18 -18 -51 -37 -75 -44 -42 -11 -62 -33 -45 -50 5 -4 35 -4 67 2
51 9 60 8 71 -7 12 -17 16 -16 69 8 87 40 190 159 161 186 -16 15 -48 19 -82
11z m52 -22 c11 -11 12 -17 1 -38 -18 -34 -80 -90 -137 -123 -47 -27 -48 -27
-67 -8 -14 14 -29 18 -58 15 l-38 -4 46 24 c25 14 51 32 58 40 8 9 20 16 27
16 8 0 28 12 44 28 46 42 55 49 70 55 25 9 40 8 54 -5z"/>
<path d="M1248 273 c23 -2 61 -2 85 0 23 2 4 4 -43 4 -47 0 -66 -2 -42 -4z"/>
</g>
</svg>
