<?xml version="1.0" standalone="no"?>
<!DOCTYPE svg PUBLIC "-//W3C//DTD SVG 20010904//EN"
 "http://www.w3.org/TR/2001/REC-SVG-20010904/DTD/svg10.dtd">
<svg version="1.0" xmlns="http://www.w3.org/2000/svg"
 width="300.000000pt" height="312.000000pt" viewBox="0 0 300.000000 312.000000"
 preserveAspectRatio="xMidYMid meet">
<metadata>
Created by potrace 1.10, written by Peter Selinger 2001-2011
</metadata>
<g transform="translate(0.000000,312.000000) scale(0.100000,-0.100000)"
fill="#ff5460" stroke="none">
<path d="M1374 2864 c-6 -24 -10 -26 -50 -21 -52 5 -72 -10 -54 -43 15 -27 6
-53 -22 -65 -32 -14 -36 -51 -6 -60 31 -10 39 -24 32 -61 -7 -39 15 -61 45
-45 26 14 46 6 59 -25 15 -33 47 -31 64 4 13 26 27 30 72 21 27 -6 44 25 28
52 -11 18 -9 23 18 47 36 32 39 59 6 72 -29 11 -36 27 -24 59 13 36 -12 59
-47 43 -21 -10 -28 -9 -45 8 -11 11 -20 25 -20 30 0 6 -11 10 -25 10 -18 0
-26 -7 -31 -26z m48 -9 c13 -30 38 -39 79 -30 30 7 30 7 23 -29 -7 -39 14 -76
43 -76 7 0 13 -4 13 -10 0 -5 -4 -10 -8 -10 -5 0 -18 -9 -31 -21 -19 -18 -21
-27 -16 -62 7 -36 6 -39 -11 -32 -11 4 -26 9 -34 12 -16 4 -55 -26 -62 -49 -3
-9 -15 -2 -35 20 -34 36 -36 36 -64 22 -28 -15 -40 -4 -27 25 9 19 7 29 -6 50
-9 14 -23 25 -31 25 -23 0 -18 28 6 35 28 9 46 50 30 69 -19 23 -5 35 32 29
35 -5 67 15 67 43 0 23 19 16 32 -11z"/>
<path d="M1339 2771 c-43 -43 -37 -102 15 -143 57 -47 146 3 146 80 0 33 -6
45 -31 66 -43 36 -91 35 -130 -3z m109 -1 c27 -17 32 -25 32 -60 0 -51 -27
-80 -74 -80 -81 0 -106 114 -32 146 40 17 36 17 74 -6z"/>
<path d="M2049 2789 c-14 -12 -21 -29 -20 -46 1 -16 2 -38 3 -50 0 -13 4 -23
8 -23 14 0 21 32 9 46 -15 18 -4 60 18 68 10 4 113 7 230 7 117 -1 213 3 213
8 0 5 -99 9 -220 9 -200 0 -222 -2 -241 -19z"/>
<path d="M414 2763 c4 -5 103 -8 221 -8 222 0 237 -3 248 -45 3 -10 -1 -27 -8
-37 -11 -15 -29 -18 -105 -20 -50 0 -94 -4 -97 -7 -4 -3 0 -6 8 -6 8 -1 76 -2
152 -3 147 -2 157 -5 157 -54 0 -42 -33 -50 -188 -49 -79 0 -146 -2 -149 -6
-2 -5 70 -8 161 -8 159 0 165 1 180 22 39 55 4 108 -69 108 -45 0 -54 7 -34
27 16 16 1 71 -21 83 -22 12 -467 14 -456 3z"/>
<path d="M1940 2670 c-31 -31 -30 -74 2 -102 18 -16 42 -18 175 -18 84 0 153
4 153 9 0 5 -64 9 -142 9 -175 0 -163 -1 -182 18 -35 34 -2 94 48 89 14 -2 26
1 26 6 0 17 -60 9 -80 -11z"/>
<path d="M2060 2681 c0 -10 186 -9 196 2 4 4 -38 7 -94 7 -56 0 -102 -4 -102
-9z"/>
<path d="M2300 2285 l0 -185 159 0 159 0 22 -35 c12 -19 24 -35 27 -35 7 0
-39 74 -51 82 -6 4 -77 8 -158 8 l-148 0 0 139 0 140 38 4 37 4 -37 1 c-33 2
-38 5 -38 27 l0 25 144 0 c130 0 144 -2 142 -17 0 -10 7 -19 17 -21 11 -2 17
2 16 15 0 10 -3 13 -6 5 -2 -6 -9 -10 -14 -6 -15 9 0 24 26 24 18 0 22 -4 18
-20 -4 -15 0 -20 16 -20 14 0 21 6 20 18 0 10 -3 12 -6 5 -2 -7 -9 -13 -14
-13 -4 0 -6 7 -3 15 4 8 15 15 26 15 13 0 17 -4 12 -12 -5 -9 -2 -9 9 1 14 11
17 11 17 0 0 -11 2 -11 10 1 8 13 10 13 10 -2 0 -9 2 -22 5 -30 4 -10 -17 -13
-102 -12 l-108 0 103 -3 102 -4 0 -139 c0 -118 -2 -140 -15 -140 -8 0 -15 -5
-15 -11 0 -6 10 -9 23 -7 22 3 22 5 25 186 l2 182 -235 0 -235 0 0 -185z"/>
<path d="M2388 2443 c34 -2 88 -2 120 0 31 2 3 3 -63 3 -66 0 -92 -1 -57 -3z"/>
<path d="M2383 2423 c37 -2 97 -2 135 0 37 2 6 3 -68 3 -74 0 -105 -1 -67 -3z"/>
<path d="M786 2368 c-14 -8 -16 -47 -16 -363 l0 -354 -200 -3 c-115 -2 -203
-7 -208 -13 -15 -15 -25 -55 -14 -55 5 0 12 9 15 20 3 11 14 23 25 27 12 5
101 8 199 7 119 -1 180 3 185 10 4 6 8 167 8 358 0 266 3 349 13 355 13 8
1210 14 1264 6 18 -3 34 -12 36 -22 4 -14 5 -14 6 1 0 10 -8 22 -19 28 -24 13
-1270 11 -1294 -2z"/>
<path d="M2477 2346 c-20 -14 -46 -26 -59 -29 l-23 -4 23 -2 c12 0 22 -4 22
-8 0 -5 42 -6 93 -5 77 3 97 1 110 -13 10 -9 17 -12 17 -6 0 5 -5 13 -11 17
-7 4 -8 9 -1 13 6 3 -38 4 -96 3 -59 -2 -103 0 -99 4 5 5 41 8 80 7 l72 -1
-60 7 c-56 6 -58 7 -30 16 35 11 48 9 90 -11 l30 -14 -28 25 c-36 32 -83 32
-130 1z"/>
<path d="M2374 2351 c-2 -2 -4 -46 -4 -98 l0 -93 35 0 c19 0 35 5 35 10 0 6
-13 10 -28 10 l-28 0 1 78 2 77 34 6 c19 4 31 8 27 9 -14 4 -70 5 -74 1z"/>
<path d="M2640 2350 c-12 -8 -9 -10 13 -10 l27 0 0 -80 c0 -73 -2 -80 -20 -80
-11 0 -20 -4 -20 -10 0 -5 14 -10 30 -10 l31 0 -3 98 c-3 88 -5 97 -23 100
-11 1 -27 -2 -35 -8z"/>
<path d="M2102 2263 c-1 -30 2 -53 8 -53 6 0 11 -26 12 -57 l2 -58 3 55 c3 30
0 63 -6 75 -6 11 -12 36 -14 55 -3 25 -4 21 -5 -17z"/>
<path d="M865 1370 l0 -920 466 0 c410 0 468 -2 479 -16 20 -23 49 -37 46 -21
-2 13 -26 39 -61 67 -17 14 -18 13 -12 -4 7 -17 2 -18 -70 -12 -43 3 -246 6
-450 6 -284 1 -373 4 -373 13 0 9 97 12 415 11 229 -1 418 2 421 7 3 5 -174 9
-410 9 l-416 0 0 619 c0 486 -3 620 -12 624 -10 4 -10 6 0 6 9 1 12 32 12 121
l0 121 540 -3 540 -3 0 78 0 77 -550 0 c-360 0 -550 3 -550 10 0 6 5 10 10 10
6 0 10 27 10 60 0 50 -3 60 -17 60 -17 0 -18 -50 -18 -920z m1072 739 c17 -14
17 -78 1 -84 -7 -3 -244 -6 -526 -7 l-512 -3 0 52 0 53 512 0 c360 0 515 -4
525 -11z"/>
<path d="M2437 2263 c12 -6 42 -14 66 -16 l42 -4 -42 -1 c-54 -2 -57 -22 -4
-22 22 0 41 -5 44 -12 2 -7 4 5 4 27 l-1 40 -66 0 c-59 1 -64 -1 -43 -12z"/>
<path d="M1576 2251 c-11 -13 -15 -27 -11 -40 9 -30 21 -26 20 7 0 21 5 28 24
30 28 4 43 -14 35 -43 -5 -20 -5 -20 10 -1 35 43 -41 88 -78 47z"/>
<path d="M1720 2256 c-14 -18 -10 -58 8 -64 11 -3 11 0 1 16 -18 28 2 51 37
44 22 -4 25 -9 22 -33 -3 -16 -1 -29 4 -29 16 0 21 31 10 56 -13 28 -62 34
-82 10z"/>
<path d="M1866 2254 c-18 -17 -19 -24 -10 -48 9 -23 23 -20 17 4 -6 22 11 49
30 46 26 -4 39 -19 34 -42 -3 -20 -2 -22 9 -13 19 16 17 33 -4 52 -23 21 -56
22 -76 1z"/>
<path d="M2566 2224 c-4 -9 -4 -19 -1 -22 3 -3 5 0 5 6 0 7 15 12 35 12 26 0
33 -4 29 -15 -3 -8 -14 -17 -25 -20 -11 -4 -17 -9 -15 -13 2 -4 -14 -8 -37
-10 -32 -2 -49 4 -83 28 -44 31 -64 37 -64 20 0 -5 8 -10 17 -10 9 0 29 -12
44 -26 22 -21 38 -26 88 -28 35 -2 58 1 55 6 -4 5 6 22 21 38 27 28 27 28 7
39 -30 16 -69 13 -76 -5z"/>
<path d="M498 2173 c-27 -26 -28 -27 -60 -11 -58 27 -94 30 -152 14 -189 -55
-209 -316 -32 -400 45 -21 131 -20 182 3 50 23 99 80 112 131 11 45 7 113 -9
143 -10 17 -9 23 7 34 10 6 28 19 39 27 20 16 20 16 -2 22 -12 3 -28 19 -35
35 -7 16 -15 29 -18 29 -3 0 -18 -12 -32 -27z m11 -49 c-26 -28 -19 -31 17 -8
34 23 41 11 11 -19 -16 -15 -30 -21 -38 -16 -7 4 -16 6 -20 3 -18 -11 1 48 22
70 19 20 25 22 27 10 2 -9 -6 -27 -19 -40z m-92 27 c23 -11 43 -18 45 -16 2 3
2 -11 0 -29 -4 -31 -1 -35 26 -41 74 -16 67 -161 -10 -236 -47 -45 -104 -61
-172 -48 -103 19 -163 102 -153 212 6 71 40 119 108 154 54 27 101 29 156 4z"/>
<path d="M290 2109 c-64 -27 -108 -105 -94 -166 9 -39 49 -90 84 -108 93 -48
210 27 210 134 -1 74 -33 109 -70 76 -13 -11 -26 -14 -46 -8 -41 10 -66 5 -86
-19 -41 -47 -8 -118 55 -118 46 0 72 30 70 80 -1 26 4 43 17 55 17 16 19 15
29 -4 6 -11 11 -41 11 -67 0 -41 -5 -51 -39 -85 -33 -33 -45 -39 -82 -39 -55
0 -101 27 -122 73 -21 44 -21 70 0 114 31 67 108 91 179 57 43 -21 54 -13 17
11 -32 22 -99 29 -133 14z m95 -91 c15 -2 16 -62 2 -83 -16 -20 -60 -23 -82
-5 -38 31 -2 107 45 95 14 -3 30 -6 35 -7z"/>
<path d="M2631 2135 c-1 -6 3 -15 7 -20 5 -6 21 -32 37 -59 23 -40 24 -48 10
-42 -15 5 -16 4 -5 -9 9 -10 17 -12 23 -6 6 6 0 26 -17 55 -26 44 -26 46 -6
46 11 0 20 5 20 10 0 6 -13 10 -29 10 -16 0 -32 6 -34 13 -3 6 -6 7 -6 2z"/>
<path d="M2084 2056 c-17 -8 -39 -24 -48 -37 -18 -26 -21 -76 -6 -99 8 -13 10
-12 10 3 0 10 4 15 10 12 5 -3 23 1 40 10 29 15 34 15 56 1 17 -12 35 -14 63
-10 36 6 41 4 46 -18 3 -13 1 -37 -5 -52 -13 -35 -4 -48 16 -22 11 16 16 17
29 6 13 -11 15 -7 16 31 2 87 -2 114 -20 129 -10 9 -23 26 -30 38 -10 19 -20
22 -79 22 -37 -1 -81 -7 -98 -14z m169 -58 c12 -15 19 -29 16 -31 -2 -2 -33 0
-69 5 -36 4 -80 8 -97 8 -22 -1 -33 4 -33 13 0 23 41 36 104 34 51 -2 62 -6
79 -29z"/>
<path d="M1968 1967 c-5 -10 -8 -49 -8 -87 0 -45 -5 -71 -14 -79 -13 -11 -283
-18 -294 -7 -3 3 3 15 13 26 22 25 15 98 -12 117 -28 21 -672 18 -701 -3 -27
-18 -31 -94 -7 -114 21 -17 19 -30 -4 -30 -11 0 -23 -4 -26 -10 -4 -6 181 -11
527 -12 293 -2 534 -2 536 -2 1 1 1 50 0 110 -2 61 -6 101 -10 91z m-308 -92
l0 -50 -355 0 -355 0 0 50 0 50 355 0 355 0 0 -50z"/>
<path d="M1710 1875 l0 -45 98 0 97 0 0 45 0 45 -97 0 -98 0 0 -45z m160 0 c0
-12 -13 -15 -59 -15 -56 0 -79 9 -64 24 3 3 33 6 65 6 45 0 58 -3 58 -15z"/>
<path d="M2031 1852 c-4 -85 46 -157 104 -150 23 3 31 -1 31 -12 0 -12 -8 -15
-28 -12 -33 5 -37 -12 -7 -28 16 -9 26 -8 44 4 33 22 39 21 79 -15 27 -23 37
-43 46 -86 11 -51 10 -80 -6 -193 -4 -33 -4 -33 7 -10 6 14 12 70 13 125 1
121 -15 157 -84 193 -49 25 -60 55 -22 60 27 4 92 66 92 88 0 17 -6 13 -68
-46 -44 -42 -98 -68 -113 -53 -7 7 0 14 20 23 17 7 31 16 31 21 0 5 -11 2 -25
-7 -23 -15 -27 -15 -50 0 -37 24 -30 36 21 36 25 0 43 4 39 9 -3 5 -27 7 -54
4 l-49 -5 -10 38 c-7 27 -10 32 -11 16z"/>
<path d="M2473 1820 c142 -4 160 -7 173 -24 18 -25 18 -36 -2 -64 -14 -20 -23
-22 -110 -22 -52 0 -93 -3 -90 -8 2 -4 69 -7 147 -7 125 1 145 -1 161 -17 20
-20 23 -45 8 -68 -7 -12 -42 -16 -172 -20 l-163 -6 161 -2 c145 -2 163 0 177
16 22 25 21 75 -1 95 -12 11 -36 17 -67 17 -38 0 -46 3 -37 12 7 7 12 27 12
44 0 57 -22 64 -200 62 l-155 -2 158 -6z"/>
<path d="M970 1460 l0 -190 235 0 235 0 0 190 0 190 -235 0 -235 0 0 -190z
m455 0 l0 -175 -220 0 -220 0 -3 165 c-1 90 0 170 3 177 3 11 50 13 222 11
l218 -3 0 -175z"/>
<path d="M1560 1610 c0 -19 7 -20 165 -20 158 0 165 1 165 20 0 19 -7 20 -165
20 -158 0 -165 -1 -165 -20z"/>
<path d="M350 1550 c10 -19 8 -20 -35 -20 -78 0 -114 -66 -61 -113 23 -20 36
-22 180 -23 86 -1 156 3 156 7 0 5 -69 9 -153 9 -136 0 -156 2 -170 18 -23 26
-21 58 5 76 17 12 54 16 163 18 139 2 140 2 42 7 -78 5 -101 10 -111 24 -18
23 -29 22 -16 -3z"/>
<path d="M1780 1555 c0 -13 -7 -15 -33 -10 -23 5 -37 2 -45 -8 -16 -19 0 -32
51 -41 27 -5 49 -19 70 -43 105 -118 110 -123 137 -123 27 0 40 15 40 46 0 8
-9 14 -20 14 -12 0 -20 -7 -20 -17 0 -13 -9 -8 -36 18 -33 32 -93 109 -64 82
19 -17 30 -16 30 2 0 10 -10 15 -30 15 -24 0 -33 7 -50 40 -22 43 -30 49 -30
25z"/>
<path d="M805 1540 c-8 -14 3 -30 21 -30 8 0 14 9 14 20 0 21 -24 28 -35 10z"/>
<path d="M2442 1491 c-50 -23 -88 -62 -108 -110 -14 -35 -19 -98 -8 -125 12
-32 19 -14 19 52 0 60 4 73 28 105 16 21 45 46 65 56 44 21 148 36 157 21 3
-6 -1 -7 -12 -4 -10 3 -4 -2 12 -12 46 -25 65 -45 87 -89 11 -22 22 -41 23
-43 1 -1 13 2 26 7 19 8 20 10 6 10 -10 1 -25 8 -34 16 -14 14 -13 15 13 9 34
-8 47 -18 50 -39 1 -9 -6 -15 -17 -15 -10 0 -19 -4 -19 -10 0 -5 7 -10 15 -10
24 0 17 -17 -8 -22 -20 -4 -23 -1 -19 19 3 14 0 23 -8 23 -8 0 -11 -11 -8 -31
6 -41 -45 -126 -92 -151 -20 -10 -55 -18 -83 -18 -28 0 -46 -4 -42 -10 7 -12
139 -12 171 0 13 5 24 16 24 25 0 8 5 15 11 15 5 0 7 -6 3 -12 -4 -7 5 -2 20
12 40 36 58 76 63 140 4 43 1 60 -10 72 -9 9 -14 18 -10 21 3 3 -5 20 -17 37
-20 28 -28 31 -58 28 -26 -3 -41 1 -55 15 -20 20 -20 20 4 13 46 -13 62 -16
53 -7 -37 33 -179 40 -242 12z m314 -243 c-3 -13 -6 -26 -6 -30 0 -5 -7 -8
-16 -8 -8 0 -12 -4 -9 -10 3 -5 -1 -10 -9 -10 -16 0 -63 -40 -48 -40 9 -1 -29
-30 -40 -30 -4 0 -8 7 -8 16 0 8 4 13 8 10 8 -5 42 28 42 40 0 11 28 33 34 26
4 -3 4 1 0 11 -5 13 0 17 22 18 24 1 25 2 6 6 -27 5 -19 23 10 23 16 0 19 -5
14 -22z"/>
<path d="M802 1418 c2 -60 6 -73 21 -76 15 -3 17 6 17 72 0 70 -2 76 -20 76
-19 0 -21 -5 -18 -72z"/>
<path d="M1560 1475 c0 -13 19 -15 118 -13 64 0 101 3 82 5 -19 3 -39 9 -44
14 -6 5 -43 9 -83 9 -58 0 -73 -3 -73 -15z"/>
<path d="M2419 1422 c-41 -37 -43 -41 -47 -107 -3 -43 -1 -66 5 -62 6 4 8 17
6 30 -3 13 0 42 6 65 30 110 184 132 248 36 24 -38 23 -116 -3 -151 -27 -36
-75 -64 -113 -65 -17 -1 -28 -5 -25 -10 8 -12 68 -1 105 18 70 36 93 155 43
221 -34 44 -73 63 -132 63 -43 0 -55 -5 -93 -38z"/>
<path d="M2488 1406 c-41 -51 -37 -81 12 -106 45 -23 51 -46 18 -60 -14 -5
-17 -9 -7 -9 18 -1 39 18 39 36 0 7 -18 24 -40 38 -45 29 -54 66 -20 87 11 7
20 18 20 25 0 7 5 13 10 13 6 0 10 -7 10 -15 0 -8 7 -15 15 -15 18 0 20 -16 3
-23 -8 -4 -7 -6 3 -6 24 -1 32 27 9 34 -10 3 -21 12 -24 20 -8 22 -18 18 -48
-19z"/>
<path d="M1560 1390 c0 -19 7 -20 143 -20 79 0 147 3 150 7 4 3 2 12 -4 20 -9
10 -46 13 -150 13 -132 0 -139 -1 -139 -20z"/>
<path d="M2225 1328 c-8 -27 -17 -34 -55 -44 l-45 -12 48 -3 c26 -1 53 -2 60
-3 6 -1 20 15 30 34 16 33 16 36 0 48 -24 17 -28 16 -38 -20z"/>
<path d="M775 900 c0 -245 1 -345 2 -223 2 123 2 323 0 445 -1 123 -2 23 -2
-222z"/>
<path d="M1560 1308 c0 -16 13 -18 125 -18 102 0 125 3 125 14 0 10 14 16 43
18 23 2 -33 3 -125 3 -153 0 -168 -2 -168 -17z"/>
<path d="M2025 1320 c-3 -5 -1 -10 6 -10 6 0 18 -8 26 -17 14 -17 14 -17 9 0
-3 10 -6 23 -6 28 0 12 -27 12 -35 -1z"/>
<path d="M2544 1309 c32 -25 34 -62 4 -83 -12 -9 -18 -16 -12 -16 19 0 44 36
44 63 0 15 -9 32 -22 41 -33 24 -45 19 -14 -5z"/>
<path d="M2092 1218 c3 -9 31 -14 81 -16 63 -2 77 -6 77 -19 0 -14 -20 -15
-192 -8 -157 6 -194 10 -204 22 -16 23 -34 7 -34 -32 0 -33 0 -33 -32 -24 -18
5 -77 9 -130 9 -91 0 -98 -1 -98 -20 0 -19 7 -20 123 -20 l123 0 59 -61 c79
-80 92 -87 106 -55 10 20 25 28 87 41 65 15 85 15 152 4 66 -10 80 -16 89 -36
6 -12 15 -23 20 -23 11 0 141 137 141 150 0 5 -4 11 -8 14 -5 3 -7 19 -4 35 6
46 -30 59 -103 39 -46 -13 -55 -13 -55 -2 0 11 -22 14 -101 14 -76 0 -100 -3
-97 -12z m319 -55 c12 -33 1 -57 -28 -61 -14 -2 -23 -13 -26 -31 -6 -29 -39
-51 -45 -32 -2 6 -12 11 -22 11 -10 0 -22 5 -25 10 -9 15 -163 12 -225 -4 -39
-10 -59 -11 -67 -4 -10 8 -13 6 -13 -6 0 -9 -8 -16 -20 -16 -11 0 -20 3 -20 8
0 4 -16 25 -35 46 -19 22 -35 44 -35 49 0 5 42 8 93 7 187 -3 295 5 315 23 11
10 26 15 34 12 8 -3 25 -1 39 4 45 18 69 13 80 -16z"/>
<path d="M970 973 c0 -106 3 -193 8 -193 4 0 14 5 22 10 13 8 12 10 -3 10 -16
0 -17 13 -15 173 l3 172 223 3 222 2 0 -169 c0 -104 -4 -172 -10 -176 -12 -7
-4 -25 11 -25 5 0 9 79 9 193 l0 192 -235 0 -235 0 0 -192z"/>
<path d="M282 1070 c-2 -65 1 -82 13 -86 8 -3 13 -10 10 -14 -4 -7 37 -40 50
-40 7 0 1 32 -8 48 -5 7 -12 10 -17 7 -20 -13 -36 7 -35 45 0 22 4 40 9 40 4
0 6 6 3 13 -3 9 18 11 92 9 106 -4 125 -14 118 -64 -2 -15 1 -30 7 -32 6 -2 3
-5 -6 -5 -10 -1 -18 -7 -18 -15 0 -8 -4 -17 -9 -21 -6 -3 -8 5 -6 17 l4 23
-18 -22 c-10 -12 -20 -21 -22 -20 -3 1 1 -5 8 -13 11 -12 18 -9 48 20 39 37
47 86 20 114 -8 8 -15 17 -15 20 0 3 7 3 15 0 11 -5 15 1 15 25 l0 31 -127 0
-128 0 -3 -80z m245 45 c2 -6 -38 -9 -112 -7 -66 2 -115 7 -115 13 0 13 222 7
227 -6z"/>
<path d="M327 1023 c-30 -8 -10 -19 27 -15 20 2 33 8 30 13 -5 9 -26 10 -57 2z"/>
<path d="M436 1023 c-3 -4 8 -12 26 -18 23 -7 35 -7 40 0 12 17 -50 34 -66 18z"/>
<path d="M2387 1008 c-2 -7 10 -25 27 -40 17 -15 25 -27 19 -28 -23 0 -13 -20
10 -20 20 0 51 -32 52 -53 0 -4 5 -11 10 -15 6 -4 11 -19 13 -34 3 -21 -2 -27
-20 -31 -17 -3 -15 -5 10 -6 28 -1 32 -4 32 -30 0 -20 -6 -31 -17 -34 -14 -4
-13 -5 4 -6 17 -1 21 -6 19 -28 -3 -22 -10 -29 -32 -34 l-29 -7 27 -1 c22 -1
26 -5 23 -23 -5 -26 -14 -35 -40 -41 -18 -4 -18 -5 3 -6 12 0 22 -4 22 -8 -1
-19 -29 -43 -51 -44 l-24 -1 23 -6 23 -7 -21 -22 c-11 -13 -28 -23 -38 -24
-11 0 -13 -2 -4 -6 19 -7 -15 -43 -40 -43 -11 0 -16 -5 -13 -10 34 -55 169
100 191 220 17 93 -4 208 -49 275 -48 71 -122 135 -130 113z"/>
<path d="M1560 990 c0 -19 6 -20 113 -20 78 1 117 5 130 14 16 13 15 14 -12
18 -17 2 -76 5 -131 7 -95 2 -100 1 -100 -19z"/>
<path d="M1803 953 c-24 -25 -43 -50 -43 -54 0 -4 -5 -20 -12 -34 -11 -24 -15
-25 -100 -25 -83 0 -88 -1 -88 -21 0 -20 3 -21 67 -16 37 4 69 11 71 17 2 5 9
10 16 10 10 0 10 -11 2 -50 l-10 -50 -374 0 c-350 0 -373 -1 -370 -17 2 -10
11 -18 21 -17 9 0 176 1 370 2 l352 2 18 38 c9 20 19 46 22 57 8 40 45 103 90
153 61 67 30 72 -32 5z"/>
<path d="M382 924 c-7 -14 -16 -23 -21 -19 -6 3 -26 -9 -46 -26 -34 -30 -36
-35 -33 -85 2 -30 4 -54 6 -54 2 0 10 7 18 15 12 12 12 15 2 15 -9 0 -13 13
-13 39 0 37 4 42 47 68 26 15 48 33 48 40 0 6 4 15 10 18 6 3 7 -1 4 -9 -3 -9
-2 -16 4 -16 8 0 22 22 22 36 0 2 -8 4 -18 4 -11 0 -24 -12 -30 -26z"/>
<path d="M1560 905 c0 -12 17 -15 91 -15 52 0 88 4 85 9 -4 5 0 12 6 14 7 3
-31 6 -84 6 -81 1 -98 -2 -98 -14z"/>
<path d="M454 898 c-4 -7 -4 -10 1 -6 4 4 18 -6 32 -23 14 -16 28 -27 31 -25
4 2 7 -13 7 -35 0 -46 -9 -49 -41 -13 -13 14 -29 22 -35 19 -6 -4 4 -17 23
-32 18 -13 32 -29 30 -34 -1 -6 2 -8 7 -5 14 9 25 -14 13 -26 -13 -13 -216
-11 -220 2 -6 18 -22 10 -22 -10 0 -19 7 -20 129 -20 l128 0 1 78 c1 66 -2 80
-21 100 -32 34 -54 45 -63 30z"/>
<path d="M347 808 c-15 -11 -25 -24 -21 -29 3 -5 17 0 31 11 14 11 36 20 49
20 36 0 37 16 1 17 -18 0 -45 -8 -60 -19z"/>
<path d="M352 765 c9 -10 108 -13 114 -4 3 5 -23 9 -57 9 -34 0 -60 -2 -57 -5z"/>
<path d="M1707 669 c-3 -11 4 -46 15 -77 11 -31 20 -64 21 -73 1 -9 7 -16 14
-16 16 0 16 -5 -3 64 -9 32 -19 70 -21 86 -7 35 -19 43 -26 16z"/>
<path d="M970 640 c0 -20 5 -20 356 -20 333 0 355 1 352 18 -3 16 -29 17 -356
20 -348 3 -352 2 -352 -18z"/>
<path d="M970 558 c0 -17 17 -18 221 -18 194 0 220 2 217 15 -3 14 -34 16
-221 18 -201 2 -217 1 -217 -15z"/>
<path d="M720 424 c-19 -7 -46 -13 -60 -14 -35 -1 -79 -35 -64 -50 29 -29 310
-57 649 -64 99 -2 227 -8 285 -14 181 -18 397 -22 625 -12 121 5 236 12 255
15 146 23 169 38 98 62 -56 18 -128 16 -188 -6 -79 -29 -282 -30 -365 -1 -32
11 -63 24 -70 30 -7 6 -213 11 -556 12 l-543 3 -12 23 c-15 30 -14 30 -54 16z
m40 -49 c11 -13 8 -15 -16 -15 -16 0 -40 3 -53 7 -21 5 -22 7 -7 13 34 11 64
10 76 -5z m1180 -44 c25 -11 56 -21 70 -21 16 0 21 -3 13 -8 -24 -15 -437 -2
-583 18 -36 5 -133 10 -215 11 -83 0 -164 4 -180 7 -26 6 756 21 825 16 14 -1
45 -11 70 -23z m463 5 c15 -12 14 -14 -20 -20 -21 -3 -51 -6 -68 -5 l-30 0 25
11 c14 5 30 11 37 12 7 1 16 5 19 9 10 10 16 8 37 -7z"/>
</g>
</svg>
