<?xml version="1.0" standalone="no"?>
<!DOCTYPE svg PUBLIC "-//W3C//DTD SVG 20010904//EN"
 "http://www.w3.org/TR/2001/REC-SVG-20010904/DTD/svg10.dtd">
<svg version="1.0" xmlns="http://www.w3.org/2000/svg"
 width="300.000000pt" height="300.000000pt" viewBox="0 0 300.000000 300.000000"
 preserveAspectRatio="xMidYMid meet">
<metadata>
Created by potrace 1.10, written by Peter Selinger 2001-2011
</metadata>
<g transform="translate(0.000000,300.000000) scale(0.100000,-0.100000)"
fill="#ff5460" stroke="none">
<path d="M1211 2543 c-13 -9 -38 -17 -54 -19 -53 -4 -74 -55 -37 -89 12 -11
19 -28 18 -43 -2 -20 3 -27 27 -36 17 -6 31 -20 33 -31 2 -11 10 -32 17 -47 7
-16 9 -28 4 -28 -5 0 -14 10 -19 23 -5 13 -9 16 -9 7 -1 -25 29 -62 46 -56 9
4 19 -5 28 -27 8 -17 14 -29 15 -25 0 4 16 -4 36 -17 20 -14 41 -25 45 -25 5
0 9 -7 9 -15 0 -19 -46 -20 -88 -2 -24 10 -28 16 -21 29 8 14 5 19 -14 23 -34
9 -72 -9 -101 -48 -15 -19 -42 -46 -61 -59 -41 -27 -67 -76 -71 -133 -2 -22
-1 -34 2 -27 3 7 19 19 35 27 20 11 29 23 29 40 0 44 20 69 87 111 l66 41 34
-23 c35 -23 105 -40 123 -29 13 8 13 42 0 50 -18 11 -10 23 16 23 14 0 35 8
46 19 20 21 43 98 33 114 -4 5 -7 27 -7 49 0 22 -4 40 -9 40 -5 0 -11 11 -15
25 -8 34 -50 65 -87 65 -25 0 -28 2 -17 15 7 9 8 15 2 15 -5 0 -8 9 -5 20 3
13 0 20 -9 20 -7 0 -21 9 -31 20 -21 24 -64 26 -96 3z m82 -48 c1 -6 -12 -16
-28 -24 -17 -7 -42 -24 -56 -37 -25 -24 -26 -24 -43 -5 -29 31 -16 54 39 72
47 16 85 13 88 -6z m32 -44 c-3 -6 3 -15 14 -20 26 -14 17 -47 -18 -64 -14 -7
-36 -20 -48 -27 -18 -12 -25 -12 -35 -2 -17 17 -1 42 45 67 41 22 47 35 17 35
-11 0 -40 -18 -64 -41 -34 -30 -43 -35 -39 -20 9 34 70 81 104 81 17 0 28 -4
24 -9z m113 -80 c24 -54 27 -65 12 -56 -6 4 -10 -8 -10 -29 0 -19 5 -36 12
-38 20 -7 -9 -61 -47 -84 -32 -21 -34 -21 -62 -4 -15 10 -49 40 -75 67 -36 36
-45 52 -38 63 8 13 13 13 30 2 20 -12 21 -11 18 10 -2 18 2 24 21 26 13 2 42
23 65 47 22 24 43 44 46 45 3 0 15 -22 28 -49z"/>
<path d="M1384 2225 c22 -17 46 -20 46 -6 0 5 -10 11 -22 15 -37 9 -44 6 -24
-9z"/>
<path d="M595 2440 c-12 -4 -27 -15 -34 -23 -14 -18 -11 -52 4 -52 43 -1 111
-33 148 -69 23 -23 61 -48 85 -55 29 -10 42 -20 40 -30 -4 -29 12 -56 44 -74
25 -14 33 -15 39 -5 17 26 22 82 10 112 -7 17 -17 46 -22 64 -6 17 -15 32 -20
32 -6 0 -36 16 -67 35 -57 35 -162 76 -191 74 -9 0 -25 -4 -36 -9z m149 -65
c48 -23 138 -85 123 -85 -4 0 2 -17 12 -37 10 -21 22 -51 25 -68 7 -29 6 -29
-8 -9 -8 11 -18 32 -21 47 -6 24 -35 59 -35 42 0 -10 -89 43 -126 75 -16 14
-44 32 -62 39 -17 7 -29 18 -26 23 9 14 54 3 118 -27z"/>
<path d="M1900 2173 c-8 -21 -17 -42 -19 -48 -2 -5 2 -4 10 3 16 14 59 16 59
2 0 -5 4 -10 9 -10 5 0 -1 20 -12 45 -12 25 -24 45 -27 45 -3 0 -12 -17 -20
-37z"/>
<path d="M2155 2200 c4 -6 15 -8 26 -5 25 8 24 0 -7 -41 l-26 -34 43 2 c38 1
39 2 11 5 l-33 4 26 30 c33 41 32 49 -11 49 -22 0 -33 -4 -29 -10z"/>
<path d="M2007 2192 c-3 -4 -2 -22 0 -39 4 -22 11 -33 22 -32 10 0 11 2 4 6
-15 6 -17 43 -3 43 6 0 10 4 10 9 0 11 -28 22 -33 13z"/>
<path d="M2051 2171 c-7 -13 -6 -23 3 -36 17 -24 50 -15 54 14 6 39 -39 56
-57 22z m47 -18 c-5 -26 -38 -29 -38 -4 0 15 6 21 21 21 14 0 19 -5 17 -17z"/>
<path d="M262 2168 c-28 -14 -24 -28 15 -51 44 -26 68 -30 159 -31 63 -1 86
-5 101 -19 18 -15 253 -90 261 -82 2 2 -6 25 -18 53 -20 45 -25 50 -62 56 -29
5 -52 18 -80 45 l-39 39 -157 0 c-92 0 -166 -4 -180 -10z m171 -28 c16 0 26
-4 22 -10 -7 -11 -58 -13 -93 -3 -18 4 -20 8 -10 15 7 4 22 6 33 3 11 -2 33
-5 48 -5z m187 -30 c28 -16 54 -30 58 -30 4 0 21 -12 37 -26 28 -24 26 -23
-27 5 -36 20 -58 27 -60 20 -2 -7 -12 -9 -26 -5 -12 4 -20 12 -16 17 3 5 2 8
-3 7 -12 -3 -82 22 -88 33 -15 23 76 8 125 -21z"/>
<path d="M1555 2035 c47 -63 51 -67 32 -30 -8 17 -27 41 -42 55 -22 20 -20 14
10 -25z"/>
<path d="M810 1971 c0 -6 8 -19 18 -29 10 -10 21 -26 25 -35 3 -9 11 -17 17
-17 15 0 -7 39 -26 47 -8 3 -14 11 -14 18 0 8 -4 17 -10 20 -5 3 -10 1 -10 -4z"/>
<path d="M889 1843 c10 -21 21 -45 24 -53 4 -10 6 -8 6 6 1 25 -27 84 -40 84
-5 0 0 -17 10 -37z"/>
<path d="M531 1856 c-4 -6 -11 -20 -15 -31 -3 -11 -26 -32 -51 -47 -53 -32
-57 -56 -16 -81 42 -24 63 -21 97 14 39 42 63 50 92 31 21 -14 27 -13 70 11
58 31 145 45 167 27 9 -7 18 -10 21 -7 3 3 -4 11 -16 17 -13 7 -43 27 -67 46
-44 34 -83 44 -83 23 0 -8 -16 -10 -52 -4 -91 13 -137 13 -147 1z m173 -45
c19 -8 18 -9 -11 -24 -21 -12 -39 -14 -59 -8 -35 10 -66 0 -105 -34 -18 -15
-36 -22 -46 -18 -14 6 -13 9 7 22 13 9 29 22 34 29 42 53 46 54 104 47 30 -4
65 -10 76 -14z"/>
<path d="M1387 1789 c-42 -39 -77 -75 -77 -80 0 -23 38 0 100 61 59 58 64 60
103 49 23 -6 37 -16 37 -26 0 -15 -18 -14 -62 2 -18 7 -29 -3 -52 -45 -30 -54
-103 -147 -134 -168 -55 -39 -63 -35 -93 53 -16 44 -27 85 -25 90 2 6 20 16
39 22 32 10 36 9 46 -14 9 -19 9 -29 0 -39 -18 -21 -5 -27 14 -6 12 14 14 26
7 55 -4 21 -10 40 -12 42 -1 2 -41 -5 -88 -15 -91 -20 -100 -18 -100 30 0 21
-4 18 -25 -20 -14 -25 -28 -53 -32 -62 -3 -10 -9 -18 -14 -18 -4 0 -13 -10
-20 -21 -8 -16 -8 -20 1 -17 6 2 10 7 8 11 -2 5 5 13 15 18 9 6 17 16 17 23 0
14 86 33 98 22 9 -9 41 -106 35 -106 -3 0 2 -11 11 -25 9 -14 14 -25 12 -25
-3 0 1 -15 9 -34 14 -32 13 -40 -11 -103 -32 -83 -39 -146 -25 -200 10 -37 16
-43 58 -57 26 -9 65 -30 87 -48 l39 -31 220 6 c121 3 222 8 224 11 3 2 -1 14
-7 26 -9 16 -15 19 -23 11 -32 -32 -517 7 -517 41 0 4 -8 8 -19 8 -32 0 -43
24 -37 87 6 68 21 122 39 147 12 17 18 17 71 5 71 -15 168 0 231 37 23 13 44
22 46 19 3 -2 5 4 6 13 7 84 15 102 62 130 25 15 66 36 91 47 25 11 47 22 50
25 3 3 22 13 43 22 20 10 37 22 37 27 0 14 48 19 65 7 21 -15 27 -121 17 -320
-7 -166 4 -246 34 -246 16 0 19 16 4 25 -6 4 -8 106 -4 276 3 180 1 276 -6
289 -19 35 -133 21 -138 -16 -2 -12 -16 -27 -31 -35 -15 -8 -67 -33 -114 -57
-48 -24 -89 -48 -93 -53 -3 -5 -11 -9 -18 -9 -9 0 -11 10 -6 38 3 21 11 36 18
35 8 -2 12 14 12 49 0 40 3 49 12 40 7 -7 19 -12 28 -12 10 1 5 9 -15 25 -16
14 -30 29 -30 34 0 5 -3 13 -7 17 -5 4 -8 0 -8 -9 0 -21 -6 -21 -60 -2 -23 8
-48 15 -54 15 -7 0 -47 -32 -89 -71z m204 -27 c-6 -11 -17 -22 -25 -25 -13 -5
-14 -23 -9 -105 l6 -99 -44 -21 c-93 -45 -194 -51 -263 -15 l-28 15 48 23 c27
12 65 40 85 61 37 39 100 133 112 167 9 23 23 22 30 -3 7 -26 25 -25 62 4 34
27 41 27 26 -2z m-46 -633 c72 -6 66 -7 -52 -6 -96 2 -136 6 -145 16 -11 11
-2 12 52 6 36 -4 101 -11 145 -16z"/>
<path d="M930 1795 c0 -13 -8 -29 -17 -34 -17 -10 -17 -12 -1 -24 10 -8 14
-18 10 -22 -4 -5 0 -4 8 1 8 5 19 9 24 9 5 0 11 7 13 15 3 9 1 11 -4 5 -11
-15 -35 -13 -41 4 -3 8 0 11 7 7 7 -5 11 5 11 28 0 20 -2 36 -5 36 -3 0 -5
-11 -5 -25z"/>
<path d="M1750 1806 c-87 -34 -97 -40 -108 -68 -11 -31 -10 -33 19 -18 10 6
19 21 19 33 1 21 1 22 15 3 15 -19 15 -19 15 5 1 23 1 23 15 5 15 -19 15 -19
15 3 0 12 4 20 9 17 5 -4 12 0 14 6 4 8 8 5 12 -8 10 -32 43 -21 37 12 -5 27
-13 29 -62 10z"/>
<path d="M938 1694 c-3 -3 -2 -22 3 -42 5 -20 9 -55 9 -77 1 -45 10 -36 35 36
13 37 13 40 0 29 -8 -7 -13 -15 -11 -19 2 -3 0 -15 -5 -26 -6 -16 -8 -11 -9
20 -1 22 -2 47 -1 57 2 17 -12 31 -21 22z"/>
<path d="M1833 1591 c-24 -27 -56 -66 -73 -89 -33 -46 -80 -75 -107 -66 -10 4
-28 18 -41 33 l-23 26 20 -45 c11 -26 29 -48 42 -53 13 -4 35 -22 49 -38 14
-17 32 -31 40 -33 8 -2 27 -8 43 -14 44 -18 78 -22 100 -11 18 10 19 18 12
127 -7 123 -11 152 -24 152 -16 0 -19 -69 -6 -166 7 -54 12 -100 11 -100 0 -1
-32 11 -71 26 -38 16 -78 29 -87 29 -10 1 -18 4 -18 7 0 7 147 202 161 214 7
5 22 51 17 49 -2 -1 -22 -22 -45 -48z"/>
<path d="M942 1513 c0 -10 -3 -38 -7 -63 -5 -26 -4 -42 1 -37 5 5 9 18 10 30
0 12 4 37 8 55 5 20 4 32 -3 32 -5 0 -9 -8 -9 -17z"/>
<path d="M833 1376 c-56 -15 -65 -26 -60 -72 3 -33 5 -36 12 -16 4 12 9 22 11
22 7 0 114 -30 209 -58 54 -17 102 -29 105 -27 3 2 7 33 8 68 l3 65 -38 13
c-50 16 -197 19 -250 5z m231 -37 c89 -25 -55 -48 -182 -29 -79 12 -93 22 -47
33 39 9 191 7 229 -4z"/>
<path d="M751 1220 c-13 -25 -32 -63 -43 -85 -11 -22 -27 -48 -36 -57 -8 -10
-11 -18 -7 -18 4 0 1 -8 -7 -17 -9 -10 -19 -29 -23 -43 -4 -14 -16 -36 -25
-50 -10 -14 -32 -55 -50 -90 -37 -76 -74 -147 -92 -175 -7 -11 -11 -23 -10
-27 1 -3 -5 -12 -13 -18 -13 -11 -13 -14 2 -26 10 -7 28 -14 40 -14 12 0 25
-4 28 -10 4 -6 -1 -7 -12 -4 -15 5 -15 4 -3 -4 8 -6 17 -9 21 -6 4 2 10 0 14
-5 3 -6 13 -7 22 -4 11 4 14 3 9 -5 -4 -7 -2 -13 3 -13 6 -1 16 -3 21 -4 6 -1
19 -3 31 -4 13 -1 18 -5 13 -13 -5 -8 -2 -9 9 -5 10 3 17 2 17 -3 0 -5 14 -17
31 -26 23 -11 29 -12 23 -2 -4 7 3 4 16 -7 13 -11 20 -14 16 -8 -5 9 -2 11 8
7 9 -3 13 -10 10 -15 -3 -5 0 -10 5 -10 26 -3 30 -4 36 -11 4 -4 14 -4 23 -1
11 5 13 3 7 -8 -4 -8 -5 -11 -1 -7 4 3 24 -5 43 -18 20 -13 39 -21 42 -18 3 4
0 9 -6 11 -7 3 -13 9 -13 14 0 5 83 170 185 368 102 197 185 362 185 366 0 32
-40 -41 -275 -500 -59 -115 -109 -212 -110 -213 -2 -2 -41 14 -87 36 -46 22
-112 52 -148 67 -36 15 -91 40 -123 56 l-58 30 62 117 c34 64 76 144 94 177
85 158 156 307 153 323 -3 12 -11 3 -27 -28z"/>
<path d="M812 1247 c-21 -28 -300 -566 -287 -554 5 4 71 125 146 269 75 144
142 264 149 266 8 3 6 -7 -4 -27 -9 -17 -14 -31 -11 -31 6 0 45 62 45 71 0 13
-29 17 -38 6z"/>
<path d="M2000 1253 c8 -3 17 -10 21 -14 3 -5 63 -12 135 -16 l129 -8 -48 -29
c-26 -15 -54 -25 -63 -22 -8 3 -23 1 -33 -6 -15 -9 -27 -6 -64 15 -48 28 -67
33 -67 17 0 -5 8 -7 18 -3 18 7 17 5 -12 -17 -11 -8 -17 -10 -13 -4 4 7 1 17
-7 23 -11 9 -15 4 -18 -26 -6 -45 0 -50 71 -59 51 -6 56 -5 73 19 16 22 23 24
41 16 19 -8 35 -3 100 36 42 26 77 50 77 55 0 4 -26 10 -57 14 -84 9 -301 16
-283 9z"/>
<path d="M890 1226 c0 -8 51 -27 133 -51 72 -21 136 -41 141 -46 7 -6 -281
-587 -303 -611 -8 -9 -322 128 -337 148 -10 12 -12 13 -17 1 -4 -11 44 -36
176 -95 100 -44 182 -80 183 -79 10 13 324 637 324 644 0 5 -53 24 -117 42
-65 19 -133 40 -150 47 -27 11 -33 11 -33 0z"/>
<path d="M1318 1098 c0 -7 -2 -17 -3 -23 -2 -5 -3 -16 -4 -23 0 -7 -6 -10 -13
-6 -6 4 -8 3 -4 -4 8 -13 -14 -63 -25 -56 -5 3 -6 -3 -2 -12 5 -13 3 -15 -7
-9 -9 5 -11 4 -6 -4 4 -6 -2 -22 -15 -35 -12 -12 -81 -137 -154 -277 -77 -149
-137 -253 -144 -251 -7 1 -10 -2 -6 -8 3 -5 17 -9 30 -8 13 1 21 6 19 10 -4 7
163 348 170 348 2 0 143 -31 312 -70 170 -38 317 -70 328 -70 17 0 18 -6 14
-64 -5 -59 -3 -67 21 -93 14 -16 56 -44 92 -62 l66 -34 21 21 21 21 -37 41
c-31 33 -40 38 -52 28 -12 -11 -12 -10 -2 3 9 12 9 20 -2 35 -8 10 -18 16 -22
12 -4 -4 -1 -14 5 -22 9 -11 9 -16 0 -22 -7 -4 -9 -3 -5 4 3 6 -4 18 -16 27
-21 14 -24 14 -34 0 -6 -8 -18 -15 -26 -15 -12 0 -14 7 -9 33 8 37 35 46 66
22 20 -15 20 -15 0 -9 -16 6 -18 4 -8 -6 16 -17 31 -5 26 22 -5 32 2 39 97 89
250 130 480 255 480 260 0 4 -11 9 -25 11 -14 3 -25 2 -25 -3 0 -8 -510 -282
-516 -277 -1 2 2 39 7 82 6 44 9 93 7 110 -5 41 -40 -106 -43 -178 -1 -28 -3
-54 -4 -58 -2 -13 -51 -9 -51 5 -4 137 -11 230 -19 244 -8 13 -10 -11 -11 -93
l0 -110 -192 43 c-106 23 -249 54 -318 68 -68 14 -126 28 -128 30 -3 2 34 83
43 93 1 2 129 -22 284 -53 155 -31 287 -55 293 -53 12 4 -8 9 -227 53 l-120
24 95 -5 c52 -2 131 -7 175 -9 53 -4 73 -2 59 4 -11 5 -92 12 -180 15 -180 8
-218 12 -290 32 -36 10 -53 21 -57 34 -6 25 0 25 223 5 295 -27 334 -29 327
-18 -3 5 -50 13 -104 16 -54 4 -116 9 -138 11 -22 3 -80 8 -130 12 -49 4 -99
10 -111 13 l-22 6 18 41 c11 22 25 45 32 51 12 9 197 -1 389 -22 78 -8 92 3
86 62 l-4 38 -1 -42 c-1 -24 -7 -43 -13 -43 -25 0 -398 30 -435 35 -35 5 -41
9 -37 25 3 11 3 20 -1 20 -3 0 -7 -6 -8 -12z"/>
<path d="M1952 1083 c0 -16 -4 -72 -8 -125 -8 -112 -5 -114 66 -78 22 11 40
16 40 10 0 -5 -3 -10 -7 -10 -5 -1 -28 -19 -53 -42 -59 -53 -34 -39 64 36 163
126 222 169 244 179 22 10 30 27 13 27 -6 0 -85 -45 -177 -100 -91 -56 -168
-99 -170 -97 -2 2 -1 30 2 63 l6 60 62 34 61 34 -55 8 c-30 5 -59 13 -64 18
-16 16 -23 11 -24 -17z m86 -18 c2 -1 -14 -12 -34 -24 -42 -25 -47 -23 -39 12
6 23 11 25 38 20 18 -3 33 -7 35 -8z"/>
<path d="M2380 1089 c0 -10 37 -20 75 -23 14 0 25 -4 25 -7 0 -6 77 -29 94
-29 3 0 6 5 6 11 0 5 -5 7 -10 4 -6 -4 -18 -1 -26 6 -8 6 -17 9 -21 6 -3 -4
-12 -2 -19 4 -11 9 -38 16 -81 21 -7 1 -13 4 -13 8 0 4 -7 7 -15 7 -8 0 -15
-4 -15 -8z"/>
<path d="M2594 1016 c1 -17 7 -24 19 -23 9 1 17 5 17 9 0 4 7 8 16 8 8 0 12 5
9 11 -4 5 -12 8 -18 6 -7 -2 -19 -1 -28 4 -14 7 -17 4 -15 -15z"/>
<path d="M2330 1021 c8 -6 27 -11 43 -11 15 0 27 -3 27 -7 0 -5 -70 -44 -156
-88 -212 -109 -297 -156 -291 -162 5 -4 463 231 481 247 9 9 -11 16 -74 25
-33 4 -41 3 -30 -4z"/>
<path d="M795 1005 c50 -21 83 -26 40 -6 -22 11 -47 19 -55 19 -8 0 -1 -5 15
-13z"/>
<path d="M2626 962 c-3 -5 10 -13 28 -19 26 -8 33 -7 33 4 0 7 -5 12 -11 10
-6 -3 -19 0 -28 4 -9 5 -19 5 -22 1z"/>
<path d="M2700 938 c0 -5 7 -8 15 -4 8 3 15 1 15 -4 0 -6 6 -10 14 -10 7 0 18
-6 24 -12 8 -10 5 -13 -11 -14 -12 -1 -40 -10 -62 -19 -22 -10 -43 -17 -47
-17 -5 1 -8 -3 -8 -9 0 -13 42 -1 52 15 4 6 8 7 8 2 0 -6 5 -5 12 2 7 7 23 12
38 12 14 0 39 9 55 20 l30 20 -25 1 c-39 3 -44 4 -57 12 -21 13 -53 16 -53 5z"/>
<path d="M2503 813 c-7 -2 -13 -9 -13 -14 0 -14 24 -11 46 6 19 14 19 14 -1
14 -11 0 -26 -3 -32 -6z"/>
<path d="M2430 783 c-19 -9 -39 -15 -43 -14 -5 1 -6 -3 -3 -8 7 -11 46 -2 46
11 0 5 4 7 9 3 5 -3 12 -1 16 5 4 6 11 8 16 5 5 -4 9 -1 9 4 0 14 -8 13 -50
-6z"/>
<path d="M1635 560 c-4 -6 -10 -8 -15 -5 -12 7 -100 -15 -100 -26 0 -4 9 -7
19 -6 11 0 18 4 15 8 -2 4 4 8 13 8 10 0 32 2 48 6 17 3 36 6 43 7 6 1 12 5
12 10 0 11 -28 10 -35 -2z"/>
<path d="M1417 504 c-4 -4 -19 -8 -34 -9 -50 -3 -54 -5 -48 -15 4 -6 11 -8 16
-4 9 5 41 12 77 16 6 1 12 5 12 10 0 10 -14 11 -23 2z"/>
<path d="M1095 424 c-22 -9 -49 -16 -59 -15 -13 0 -16 -3 -9 -10 8 -8 17 -8
31 0 10 6 22 7 26 4 3 -3 6 -1 6 6 0 7 5 9 10 6 6 -4 17 -1 25 5 8 6 19 9 25
5 5 -3 10 -1 10 4 0 15 -17 13 -65 -5z"/>
</g>
</svg>
