<svg id="SvgjsSvg1018" width="288" height="288" xmlns="http://www.w3.org/2000/svg" version="1.1" xmlns:xlink="http://www.w3.org/1999/xlink" xmlns:svgjs="http://svgjs.com/svgjs"><defs id="SvgjsDefs1019"></defs><g id="SvgjsG1020"><svg xmlns="http://www.w3.org/2000/svg" viewBox="0 0 67.733 67.733" width="288" height="288"><path d="M18.094 231.519c-8.73 0-15.841 7.112-15.841 15.842v31.545c0 8.73 7.11 15.842 15.841 15.842h31.545c8.73 0 15.842-7.112 15.842-15.842V247.36c0-8.73-7.112-15.842-15.842-15.842zm0 5.293h31.545c5.89 0 10.55 4.659 10.55 10.549v31.545c0 5.89-4.66 10.548-10.55 10.548H18.094c-5.89 0-10.549-4.658-10.549-10.548V247.36c0-5.89 4.659-10.549 10.549-10.549zm16.395 8.068a2.646 2.646 0 0 0-2.608 2.682v12.752h-12.75a2.646 2.646 0 1 0 0 5.29h12.75v12.75a2.647 2.647 0 1 0 5.293 0v-12.75h12.75a2.646 2.646 0 1 0 0-5.29h-12.75v-12.752a2.646 2.646 0 0 0-2.685-2.682z" color="#000" font-family="sans-serif" font-weight="400" overflow="visible" transform="translate(0 -229.267)" style="line-height:normal;font-variant-ligatures:normal;font-variant-position:normal;font-variant-caps:normal;font-variant-numeric:normal;font-variant-alternates:normal;font-feature-settings:normal;text-indent:0;text-align:start;text-decoration-line:none;text-decoration-style:solid;text-decoration-color:#000;text-transform:none;text-orientation:mixed;shape-padding:0;isolation:auto;mix-blend-mode:normal" fill="#fff" class="color000 svgShape"></path></svg></g></svg>