 <svg  version="1.0" xmlns="http://www.w3.org/2000/svg"  width="225.000000pt" height="204.000000pt" viewBox="0 0 225.000000 204.000000"  preserveAspectRatio="xMidYMid meet">  <g transform="translate(0.000000,204.000000) scale(0.100000,-0.100000)" fill="#ff5460" stroke="none"> <path d="M175 1931 c-48 -22 -79 -54 -100 -103 -13 -33 -15 -128 -15 -740 l0 -703 24 -51 c23 -50 53 -78 109 -102 21 -9 243 -12 897 -12 l870 0 0 699 0 699 -215 -5 -215 -6 0 171 0 172 -657 0 c-618 0 -660 -2 -698 -19z m1315 -166 l0 -145 -634 0 c-436 0 -643 3 -665 11 -46 16 -85 86 -79 143 8 69 50 113 123 129 11 3 298 5 638 6 l617 1 0 -145z m-438 -185 l868 0 0 -658 0 -658 -853 1 c-927 1 -883 -2 -928 59 l-24 31 -3 638 -2 638 37 -25 38 -26 867 0z"/> <path d="M1444 1027 c-66 -60 -53 -161 27 -203 79 -40 179 20 179 108 0 77 -50 127 -128 128 -34 0 -49 -6 -78 -33z m151 -60 c23 -54 -11 -106 -69 -107 -81 -1 -107 114 -33 145 42 18 85 2 102 -38z"/> </g> </svg> 